<svg width="48" height="48" viewBox="0 0 48 48" fill="none" xmlns="http://www.w3.org/2000/svg">
<path d="M38 25L38 23L40 23L40 25L38 25Z" fill="#4E5969"/>
<path d="M23 25L23 23L25 23L25 25L23 25Z" fill="#4E5969"/>
<path d="M8 25L8 23L10 23L10 25L8 25Z" fill="#4E5969"/>
<path d="M38 25L38 23L40 23L40 25L38 25Z" stroke="#4E5969" stroke-width="4"/>
<path d="M23 25L23 23L25 23L25 25L23 25Z" stroke="#4E5969" stroke-width="4"/>
<path d="M8 25L8 23L10 23L10 25L8 25Z" stroke="#4E5969" stroke-width="4"/>
</svg>
