<svg width="48" height="48" viewBox="0 0 48 48" fill="none" xmlns="http://www.w3.org/2000/svg">
<path d="M18.7966 6.73236C18.9168 6.29954 19.3109 6 19.7601 6H28.2399C28.6891 6 29.0832 6.29954 29.2034 6.73236L30.4889 11.3599C30.6348 11.8852 31.1745 12.1968 31.7024 12.0605L36.3529 10.8599C36.7879 10.7476 37.2443 10.9391 37.4689 11.3281L41.7088 18.6719C41.9334 19.0609 41.8711 19.552 41.5563 19.8725L38.1916 23.2994C37.8096 23.6884 37.8096 24.3116 38.1916 24.7006L41.5564 28.1275C41.8711 28.4481 41.9334 28.9391 41.7088 29.3281L37.4689 36.6719C37.2443 37.0609 36.7879 37.2524 36.3529 37.1401L31.7024 35.9395C31.1745 35.8032 30.6348 36.1148 30.4889 36.6401L29.2034 41.2676C29.0832 41.7005 28.6891 42 28.2399 42H19.7601C19.3109 42 18.9168 41.7005 18.7966 41.2676L17.5112 36.6403C17.3653 36.115 16.8256 35.8034 16.2977 35.9397L11.6479 37.1401C11.213 37.2524 10.7565 37.0609 10.5319 36.6719L6.292 29.3281C6.0674 28.9391 6.12976 28.4481 6.44448 28.1275L9.80926 24.7006C10.1912 24.3116 10.1912 23.6884 9.80926 23.2994L6.44448 19.8725C6.12976 19.552 6.0674 19.0609 6.292 18.6719L10.5319 11.3281C10.7565 10.9391 11.213 10.7476 11.6479 10.8599L16.2977 12.0603C16.8256 12.1966 17.3653 11.885 17.5112 11.3597L18.7966 6.73236Z" stroke="#4E5969" stroke-width="4"/>
<path d="M30 24C30 27.3137 27.3137 30 24 30C20.6863 30 18 27.3137 18 24C18 20.6863 20.6863 18 24 18C27.3137 18 30 20.6863 30 24Z" stroke="#4E5969" stroke-width="4"/>
</svg>
