<svg width="48" height="48" viewBox="0 0 48 48" fill="none" xmlns="http://www.w3.org/2000/svg">
<path d="M36.2217 40.3032L42.1707 21.6064C42.5811 20.3165 41.6185 19 40.2648 19L27.1319 19.0754L28.5 15.5C29.4642 12.9803 31.6716 9.60081 29.5 8L27.7886 6.58134C27.3505 6.25838 26.7345 6.34514 26.4026 6.77657L17 19H14V41H35.2688C35.7043 41 36.0897 40.7182 36.2217 40.3032Z" fill="#4E5969"/>
<path d="M7 17V43M42.1707 21.6064L36.2217 40.3032C36.0897 40.7182 35.7043 41 35.2688 41H14V19H17L26.4026 6.77657C26.7345 6.34514 27.3505 6.25838 27.7886 6.58134L29.5 8C31.6716 9.60081 29.4642 12.9803 28.5 15.5L27.1319 19.0754L40.2648 19C41.6185 19 42.5811 20.3165 42.1707 21.6064Z" stroke="#4E5969" stroke-width="4"/>
</svg>
