<svg width="48" height="48" viewBox="0 0 48 48" fill="none" xmlns="http://www.w3.org/2000/svg">
<path d="M11.7783 8.69678L5.82931 27.3936C5.41889 28.6835 6.38155 30 7.73516 30L20.8681 29.9246L19.5 33.5C18.5358 36.0197 16.3284 39.3992 18.5 41L20.2114 42.4187C20.6495 42.7416 21.2655 42.6549 21.5974 42.2234L31 30H34V7.99998H12.7312C12.2957 7.99998 11.9103 8.2818 11.7783 8.69678Z" fill="#4E5969"/>
<path d="M41 32V5.99998M5.82931 27.3936L11.7783 8.69678C11.9103 8.2818 12.2957 7.99998 12.7312 7.99998H34V30H31L21.5974 42.2234C21.2655 42.6549 20.6495 42.7416 20.2114 42.4187L18.5 41C16.3284 39.3992 18.5358 36.0197 19.5 33.5L20.8681 29.9246L7.73516 30C6.38155 30 5.41889 28.6835 5.82931 27.3936Z" stroke="#4E5969" stroke-width="4"/>
</svg>
